<svg width="68" height="74" viewBox="0 0 68 74" fill="none" xmlns="http://www.w3.org/2000/svg">
<g clip-path="url(#clip0_94_271)">
<path fill-rule="evenodd" clip-rule="evenodd" d="M35.999 2.663C35.2388 2.2255 34.3771 1.99524 33.5 1.99524C32.6229 1.99524 31.7612 2.2255 31.001 2.663L4.501 17.916C4.05443 18.1729 3.65032 18.4975 3.303 18.878L14.411 25.244C14.679 24.954 14.991 24.704 15.342 24.5L31.498 15.158C32.1066 14.8062 32.7971 14.6209 33.5 14.6209C34.2029 14.6209 34.8934 14.8062 35.502 15.158L51.657 24.5C52.008 24.703 52.321 24.955 52.589 25.244L63.697 18.878C63.3497 18.4974 62.9456 18.1729 62.499 17.916L35.999 2.663ZM64.722 20.596L53.539 27.004C53.615 27.314 53.655 27.636 53.655 27.963V45.757C53.6551 46.451 53.4746 47.133 53.1313 47.7362C52.788 48.3393 52.2937 48.8427 51.697 49.197L35.462 58.835C35.1608 59.0139 34.8373 59.1524 34.5 59.247V71.877C35.0025 71.762 35.4841 71.5701 35.928 71.308L62.548 55.578C63.2948 55.1373 63.9138 54.5094 64.3438 53.7564C64.7738 53.0033 65 52.1512 65 51.284V22.237C65 21.67 64.903 21.116 64.722 20.596ZM2 22.237C2 21.67 2.097 21.117 2.278 20.597L13.461 27.004C13.385 27.314 13.345 27.636 13.345 27.963V46.596C13.345 47.3137 13.5381 48.0182 13.9041 48.6356C14.2701 49.253 14.7954 49.7605 15.425 50.105L31.499 58.905C31.819 59.079 32.155 59.207 32.5 59.289V71.927C31.9689 71.8323 31.4566 71.6523 30.983 71.394L4.603 57.02C3.81574 56.5915 3.1585 55.9588 2.70044 55.1884C2.24237 54.4179 2.00041 53.5383 2 52.642V22.237ZM30.002 0.934999C31.0661 0.322728 32.2723 0.000488281 33.5 0.000488281C34.7277 0.000488281 35.9339 0.322728 36.998 0.934999L63.498 16.188C64.5621 16.7995 65.4461 17.6808 66.061 18.743C66.6758 19.8052 66.9997 21.0107 67 22.238V51.285C66.9995 52.4986 66.6827 53.6911 66.0807 54.7449C65.4786 55.7987 64.6122 56.6773 63.567 57.294L36.947 73.025C35.902 73.6422 34.7148 73.9778 33.5013 73.9988C32.2879 74.0198 31.0897 73.7257 30.024 73.145L3.644 58.771C2.54169 58.1711 1.62148 57.2852 0.980208 56.2064C0.338936 55.1276 0.00032098 53.896 0 52.641L0 22.238C0.000311182 21.0107 0.324215 19.8052 0.939051 18.743C1.55389 17.6808 2.43792 16.7995 3.502 16.188L30.002 0.934999ZM21.398 28.487L31.98 22.377C32.92 21.835 34.08 21.835 35.02 22.377L45.602 28.487C46.0581 28.7492 46.4372 29.1269 46.701 29.582C46.9649 30.0372 47.1042 30.5539 47.105 31.08V42.733C47.105 43.789 46.545 44.767 45.632 45.309L34.989 51.617C34.535 51.8857 34.0189 52.0317 33.4914 52.0409C32.9639 52.05 32.4431 51.9218 31.98 51.669L21.46 45.919C20.9873 45.662 20.5925 45.2824 20.3171 44.8202C20.0417 44.3579 19.8959 43.8301 19.895 43.292V31.08C19.895 30.012 20.468 29.024 21.398 28.487Z" fill="white" fill-opacity="0.8"/>
</g>
<defs>
<clipPath id="clip0_94_271">
<rect width="68" height="74" fill="white"/>
</clipPath>
</defs>
</svg>
