<svg width="20" height="20" viewBox="0 0 20 20" fill="none" xmlns="http://www.w3.org/2000/svg">
<g clip-path="url(#clip0_109_6)">
<path d="M6.66679 16.1243L7.36391 15.4272L9.50716 17.5705V8.82491H10.4931V17.5705L12.6364 15.4272L13.3336 16.1243L10.0002 19.4577L6.66679 16.1243ZM12.9823 13.9812V12.9951H15.2129C17.0489 12.9951 18.5426 11.5015 18.5426 9.66547C18.5426 7.92032 17.178 6.46329 15.4359 6.34841L14.4551 6.28284L14.3356 5.30637C14.068 3.1196 12.2042 1.47055 10.0002 1.47055C7.79613 1.47055 5.93228 3.11962 5.66473 5.30647L5.54519 6.28291L4.56426 6.34841C2.82239 6.46327 1.45777 7.9203 1.45777 9.66547C1.45777 11.5015 2.95143 12.9951 4.78742 12.9951H7.01797V13.9812H4.7874C2.40771 13.9812 0.47168 12.0452 0.47168 9.66549C0.47168 8.56368 0.887364 7.51535 1.64212 6.71363C2.39319 5.91583 3.40767 5.43665 4.49871 5.36429L4.66558 5.35322L4.68586 5.18721C5.01358 2.50622 7.29825 0.484482 10.0002 0.484482C12.7021 0.484482 14.9867 2.50622 15.3144 5.18719L15.3347 5.35319L15.5016 5.36426C16.5926 5.43663 17.6071 5.91583 18.3581 6.71361C19.1129 7.51535 19.5286 8.56366 19.5286 9.66547C19.5286 12.0451 17.5926 13.9812 15.2129 13.9812H12.9823V13.9812Z" fill="white"/>
</g>
<defs>
<clipPath id="clip0_109_6">
<rect width="20" height="20" fill="white"/>
</clipPath>
</defs>
</svg>
