<svg width="67" height="72" viewBox="0 0 67 72" fill="none" xmlns="http://www.w3.org/2000/svg">
<g clip-path="url(#clip0_94_281)">
<path d="M63.8594 0H3.14062C1.40611 0 0 1.51104 0 3.375V68.625C0 70.489 1.40611 72 3.14062 72H63.8594C65.5939 72 67 70.489 67 68.625V3.375C67 1.51104 65.5939 0 63.8594 0Z" fill="white" fill-opacity="0.3"/>
<path fill-rule="evenodd" clip-rule="evenodd" d="M38.8716 55.9508V63.8404C40.0611 64.4974 41.4678 64.9907 43.0918 65.3192C44.7159 65.6483 46.4276 65.8125 48.227 65.8125C49.9807 65.8125 51.6466 65.6319 53.2247 65.2703C54.8034 64.9086 56.1868 64.3129 57.3766 63.4826C58.5659 62.6524 59.5075 61.5679 60.2016 60.228C60.8951 58.8887 61.2422 57.2327 61.2422 55.2604C61.2422 53.8305 61.0438 52.5772 60.6476 51.5006C60.2508 50.424 59.6792 49.4666 58.9317 48.6284C58.1848 47.7901 57.2887 47.0382 56.2444 46.3725C55.1996 45.7068 54.0219 45.0781 52.7102 44.4864C51.7495 44.0591 50.888 43.6441 50.1255 43.2414C49.363 42.8387 48.715 42.4278 48.1813 42.0087C47.6475 41.5895 47.2358 41.1458 46.9461 40.6773C46.6563 40.2089 46.5115 39.6788 46.5115 39.0871C46.5115 38.5447 46.6411 38.0557 46.9003 37.6202C47.1596 37.1846 47.5256 36.8107 47.9983 36.4984C48.471 36.1861 49.0504 35.9437 49.7367 35.7711C50.4229 35.5985 51.1853 35.5122 52.024 35.5122C52.6343 35.5122 53.2781 35.5615 53.957 35.6601C54.6354 35.7587 55.3179 35.9108 56.0041 36.1163C56.6904 36.3217 57.3572 36.5806 58.0058 36.8929C58.6538 37.2052 59.2521 37.5667 59.8012 37.9776V30.606C58.6878 30.1458 57.4719 29.8047 56.1528 29.5828C54.8337 29.3609 53.3205 29.25 51.6123 29.25C49.8739 29.25 48.227 29.4513 46.6716 29.854C45.1162 30.2567 43.7475 30.8854 42.5657 31.7401C41.3839 32.5948 40.4499 33.6837 39.7637 35.0068C39.0775 36.3299 38.7344 37.9119 38.7344 39.7528C38.7344 42.1032 39.3634 44.1084 40.6215 45.7684C41.8796 47.4285 43.7895 48.8338 46.3513 49.9844C47.3578 50.4281 48.2956 50.8637 49.1648 51.2911C50.034 51.7184 50.7851 52.1621 51.4179 52.6224C52.0507 53.0826 52.55 53.5839 52.9159 54.1263C53.2823 54.6687 53.465 55.285 53.465 55.9754C53.465 56.4851 53.3508 56.9576 53.1221 57.393C52.8934 57.8284 52.5463 58.2064 52.0812 58.527C51.6161 58.8476 51.0367 59.0985 50.3428 59.2791C49.649 59.4596 48.837 59.5502 47.9068 59.5502C46.3208 59.5502 44.7502 59.2504 43.1947 58.6502C41.6393 58.0506 40.1983 57.1506 38.8716 55.9508ZM26.5396 36.3118H36.1172V29.8125H9.42188V36.3118H18.9526V65.25H26.5396V36.3118Z" fill="white"/>
</g>
<defs>
<clipPath id="clip0_94_281">
<rect width="67" height="72" fill="white"/>
</clipPath>
</defs>
</svg>
