<svg width="138" height="103" viewBox="0 0 138 103" fill="none" xmlns="http://www.w3.org/2000/svg">
<path d="M103.436 51.5079C103.436 46.4 97.7223 41.5592 88.9624 38.5573C90.9839 28.5614 90.0854 20.6087 86.1266 18.0626C85.2142 17.4654 84.1472 17.1825 82.9821 17.1825V20.6873C83.6278 20.6873 84.1472 20.8288 84.5824 21.0959C86.4916 22.3219 87.3199 26.9897 86.6741 32.9936C86.5197 34.4709 86.267 36.0269 85.9582 37.6143C83.2067 36.8599 80.2025 36.2784 77.0439 35.9012C75.1487 32.9936 73.1833 30.3531 71.2039 28.0428C75.7804 23.2806 80.0761 20.6716 82.9961 20.6716V17.1667C79.1356 17.1667 74.0818 20.2472 68.9718 25.5909C63.8619 20.2787 58.8081 17.2296 54.9476 17.2296V20.7345C57.8535 20.7345 62.1633 23.3277 66.7397 28.0585C64.7744 30.3689 62.809 32.9936 60.9419 35.9012C57.7693 36.2784 54.7651 36.8599 52.0136 37.63C51.6907 36.0583 51.452 34.5338 51.2836 33.0721C50.6238 27.0683 51.438 22.4004 53.3332 21.1588C53.7543 20.8759 54.3018 20.7502 54.9476 20.7502V17.2453C53.7684 17.2453 52.7014 17.5282 51.7749 18.1255C47.8302 20.6716 46.9457 28.6086 48.9813 38.573C40.2495 41.5906 34.564 46.4157 34.564 51.5079C34.564 56.6159 40.2776 61.4567 49.0375 64.4586C47.0159 74.4545 47.9144 82.4072 51.8732 84.9533C52.7857 85.5505 53.8526 85.8334 55.0318 85.8334C58.8923 85.8334 63.9461 82.7529 69.0561 77.4092C74.166 82.7215 79.2198 85.7705 83.0803 85.7705C84.2595 85.7705 85.3265 85.4876 86.253 84.8904C90.1978 82.3443 91.0822 74.4073 89.0466 64.4429C97.7504 61.441 103.436 56.6002 103.436 51.5079ZM85.158 41.0248C84.6386 43.0523 83.9928 45.1426 83.2628 47.233C82.6873 45.9756 82.0836 44.7183 81.4238 43.4609C80.778 42.2036 80.0902 40.9777 79.4023 39.7832C81.3957 40.1133 83.319 40.5219 85.158 41.0248ZM78.7285 57.7632C77.6335 59.885 76.5104 61.8967 75.3452 63.767C73.2535 63.9714 71.1337 64.0814 68.9999 64.0814C66.8801 64.0814 64.7603 63.9714 62.6827 63.7828C61.5175 61.9125 60.3804 59.9164 59.2854 57.8104C58.2185 55.7515 57.2499 53.6611 56.3654 51.5551C57.2358 49.449 58.2185 47.343 59.2714 45.2841C60.3664 43.1623 61.4894 41.1506 62.6546 39.2803C64.7463 39.076 66.8661 38.9659 68.9999 38.9659C71.1197 38.9659 73.2395 39.076 75.3171 39.2646C76.4823 41.1349 77.6194 43.1309 78.7144 45.2369C79.7813 47.2958 80.75 49.3862 81.6344 51.4922C80.75 53.5983 79.7813 55.7043 78.7285 57.7632ZM83.2628 55.72C84.0209 57.8261 84.6667 59.9321 85.2001 61.9753C83.3611 62.4783 81.4238 62.9026 79.4163 63.2327C80.1042 62.0225 80.7921 60.7808 81.4379 59.5078C82.0836 58.2504 82.6873 56.9774 83.2628 55.72ZM69.028 72.4899C67.7224 70.981 66.4169 69.2993 65.1253 67.4605C66.3888 67.5234 67.6803 67.5705 68.9859 67.5705C70.3055 67.5705 71.611 67.5391 72.8885 67.4605C71.6251 69.2993 70.3195 70.981 69.028 72.4899ZM58.5835 63.2327C56.5901 62.9026 54.6668 62.494 52.8278 61.991C53.3472 59.9636 53.993 57.8732 54.723 55.7829C55.2985 57.0403 55.9022 58.2976 56.562 59.5549C57.2218 60.8123 57.8956 62.0382 58.5835 63.2327ZM68.9578 30.526C70.2634 32.0348 71.5689 33.7165 72.8604 35.5554C71.597 35.4925 70.3055 35.4454 68.9999 35.4454C67.6803 35.4454 66.3748 35.4768 65.0973 35.5554C66.3607 33.7165 67.6663 32.0348 68.9578 30.526ZM58.5695 39.7832C57.8816 40.9934 57.1937 42.235 56.5479 43.5081C55.9022 44.7654 55.2985 46.0228 54.723 47.2801C53.9649 45.1741 53.3191 43.068 52.7857 41.0248C54.6247 40.5376 56.562 40.1133 58.5695 39.7832ZM45.8648 59.4606C40.8952 57.0874 37.6805 53.9755 37.6805 51.5079C37.6805 49.0404 40.8952 45.9128 45.8648 43.5552C47.0721 42.9737 48.3917 42.4551 49.7534 41.9678C50.5536 45.0483 51.6065 48.2546 52.912 51.5394C51.6205 54.8085 50.5817 57.999 49.7955 61.0637C48.4057 60.5765 47.0861 60.0422 45.8648 59.4606ZM53.4174 81.9199C51.5082 80.694 50.6799 76.0261 51.3257 70.0223C51.4801 68.5449 51.7328 66.989 52.0417 65.4016C54.7932 66.156 57.7974 66.7375 60.956 67.1147C62.8511 70.0223 64.8165 72.6627 66.7959 74.9731C62.2194 79.7353 57.9237 82.3443 55.0037 82.3443C54.372 82.3286 53.8386 82.1871 53.4174 81.9199ZM86.7163 69.9437C87.3761 75.9476 86.5618 80.6154 84.6667 81.8571C84.2455 82.14 83.698 82.2657 83.0522 82.2657C80.1463 82.2657 75.8366 79.6724 71.2601 74.9417C73.2254 72.6313 75.1908 70.0066 77.0579 67.099C80.2306 66.7218 83.2348 66.1403 85.9863 65.3702C86.3091 66.9575 86.5618 68.4821 86.7163 69.9437ZM92.121 59.4606C90.9137 60.0422 89.5941 60.5608 88.2324 61.048C87.4322 57.9675 86.3793 54.7613 85.0738 51.4765C86.3653 48.2074 87.4041 45.0169 88.1903 41.9521C89.5801 42.4394 90.8997 42.9737 92.135 43.5552C97.1046 45.9285 100.319 49.0404 100.319 51.5079C100.305 53.9755 97.0906 57.1031 92.121 59.4606Z" fill="white" fill-opacity="0.8"/>
<path d="M68.9858 58.6906C72.529 58.6906 75.4013 55.4748 75.4013 51.508C75.4013 47.5412 72.529 44.3254 68.9858 44.3254C65.4426 44.3254 62.5703 47.5412 62.5703 51.508C62.5703 55.4748 65.4426 58.6906 68.9858 58.6906Z" fill="white" fill-opacity="0.8"/>
</svg>
